Coordinates
version=1
nRows=28
nColumns=38
inDegrees=no

Units are S.I. units (second, meters, Newtons, ...)
If the header above contains a line with 'inDegrees', this indicates whether rotational values are in degrees (yes) or radians (no).

endheader
time	pelvis_tilt	pelvis_list	pelvis_rotation	pelvis_tx	pelvis_ty	pelvis_tz	hip_flexion_r	hip_adduction_r	hip_rotation_r	knee_angle_r	ankle_angle_r	subtalar_angle_r	mtp_angle_r	hip_flexion_l	hip_adduction_l	hip_rotation_l	knee_angle_l	ankle_angle_l	subtalar_angle_l	mtp_angle_l	lumbar_extension	lumbar_bending	lumbar_rotation	arm_flex_r	arm_add_r	arm_rot_r	elbow_flex_r	pro_sup_r	wrist_flex_r	wrist_dev_r	arm_flex_l	arm_add_l	arm_rot_l	elbow_flex_l	pro_sup_l	wrist_flex_l	wrist_dev_l
0.51	-2.98556	1.37233	-1.60026	0.992575	0.0329207	0.950583	-0.129069	-0.00686792	-0.297413	0.20596	0.0185411	0	0	0.504568	-0.184612	0.0231911	1.77996	0.039066	0	0	-0.391951	-0.0213406	0.143174	0.302119	-0.472621	-0.1361	1.56499	0	0	0	0.3992	-0.456645	0.0666759	1.51418	0.958597	0	0
0.52	-2.97662	1.37008	-1.61631	0.99525	0.0414468	0.952619	-0.154151	-0.00178729	-0.276303	0.177807	0.00753632	0	0	0.51935	-0.181098	0.00611237	1.7744	0.0491748	0	0	-0.395213	-0.0268767	0.148361	0.303987	-0.471989	-0.135	1.56312	0	0	0	0.397494	-0.458726	0.065881	1.51557	0.958707	0	0
0.53	-2.96628	1.36904	-1.63384	0.997733	0.0499244	0.954417	-0.173869	0.000554721	-0.263829	0.158664	0.00101293	0	0	0.53439	-0.177698	-0.0122355	1.7639	0.061798	0	0	-0.397132	-0.0323523	0.153088	0.305831	-0.471858	-0.132737	1.56318	0	0	0	0.395289	-0.460836	0.0645035	1.51795	0.959469	0	0
0.54	-2.95708	1.36814	-1.65028	1.00015	0.0584607	0.9561	-0.193624	0.00289429	-0.250547	0.139515	-0.00628019	0	0	0.547652	-0.174647	-0.0306368	1.74793	0.0739558	0	0	-0.398656	-0.0376226	0.157674	0.307473	-0.471583	-0.130579	1.56361	0	0	0	0.393004	-0.463144	0.0631422	1.52073	0.95872	0	0
0.55	-2.94768	1.3678	-1.66673	1.0025	0.0670139	0.957628	-0.212517	0.00494196	-0.237993	0.120697	-0.0137589	0	0	0.55965	-0.171677	-0.0489296	1.72636	0.0845745	0	0	-0.399305	-0.0429768	0.161973	0.308806	-0.47108	-0.12868	1.56413	0	0	0	0.390927	-0.465496	0.0624813	1.52243	0.956967	0	0
0.56	-2.93724	1.36812	-1.68393	1.00474	0.0755936	0.958953	-0.230273	0.00656467	-0.226409	0.102892	-0.0206166	0	0	0.570639	-0.168645	-0.0676415	1.69927	0.0921176	0	0	-0.39883	-0.0485222	0.165884	0.309755	-0.470321	-0.127185	1.56469	0	0	0	0.389027	-0.467768	0.0614064	1.52393	0.956297	0	0
0.57	-2.92798	1.36912	-1.69915	1.00679	0.0841812	0.96005	-0.246636	0.00825794	-0.217561	0.0865902	-0.0262243	0	0	0.580849	-0.166031	-0.0862443	1.66756	0.0987811	0	0	-0.397265	-0.0533861	0.169149	0.31031	-0.470064	-0.124314	1.56577	0	0	0	0.387087	-0.470205	0.0600125	1.52537	0.956733	0	0
0.58	-2.9246	1.37031	-1.70865	1.00881	0.0928553	0.960895	-0.261436	0.0108297	-0.211246	0.0739388	-0.0312514	0	0	0.589329	-0.170259	-0.108807	1.63298	0.102297	0	0	-0.395044	-0.0571434	0.172854	0.310718	-0.469284	-0.122669	1.5666	0	0	0	0.385226	-0.472277	0.0581669	1.52719	0.956338	0	0
0.59	-2.91679	1.37046	-1.72113	1.01072	0.101405	0.961746	-0.281935	0.0137094	-0.195504	0.050559	-0.0435073	0	0	0.594368	-0.167065	-0.125953	1.59286	0.109139	0	0	-0.394314	-0.0618193	0.175095	0.311251	-0.468301	-0.121603	1.56775	0	0	0	0.384526	-0.474593	0.055392	1.52893	0.964504	0	0
0.6	-2.91127	1.37247	-1.73124	1.01259	0.109882	0.962202	-0.294613	0.0161855	-0.189875	0.0392844	-0.048151	0	0	0.599808	-0.164613	-0.14311	1.54876	0.114863	0	0	-0.391682	-0.0657663	0.177482	0.311719	-0.467493	-0.119522	1.56919	0	0	0	0.384185	-0.476714	0.0531244	1.5307	0.967443	0	0
0.61	-2.90319	1.37432	-1.74398	1.01432	0.118478	0.962446	-0.306953	0.0178159	-0.183851	0.0290392	-0.0512469	0	0	0.602071	-0.161345	-0.161186	1.49989	0.122886	0	0	-0.388847	-0.0701941	0.17998	0.311716	-0.466948	-0.117682	1.57105	0	0	0	0.384011	-0.478919	0.0522505	1.53239	0.962544	0	0
0.62	-2.83858	1.36881	-1.81331	1.01674	0.127062	0.96359	-0.325261	0.00667932	-0.179044	0.0174586	-0.0530687	0	0	0.590225	-0.145684	-0.18752	1.43703	0.126557	0	0	-0.393367	-0.0891843	0.175203	0.317011	-0.459699	-0.112629	1.56961	0	0	0	0.392039	-0.468854	-0.0981269	1.52251	1.5708	0	0
0.63	-2.88128	1.37872	-1.774	1.01717	0.135915	0.961927	-0.329059	0.0195792	-0.171609	0.012028	-0.0524052	0	0	0.600636	-0.151924	-0.196603	1.39055	0.132008	0	0	-0.380621	-0.0792859	0.184337	0.311013	-0.466335	-0.115417	1.57406	0	0	0	0.385084	-0.483676	0.0534354	1.5357	0.95959	0	0
0.64	-2.87007	1.38107	-1.78804	1.01827	0.144624	0.961199	-0.337963	0.0200889	-0.168744	0.00836366	-0.0484661	0	0	0.597296	-0.146011	-0.213561	1.33061	0.134543	0	0	-0.376086	-0.0832046	0.185688	0.310772	-0.465793	-0.115772	1.57548	0	0	0	0.386803	-0.485656	0.0548276	1.53735	0.960271	0	0
0.65	-2.8587	1.38269	-1.80236	1.01931	0.153422	0.960322	-0.347078	0.0200215	-0.166514	0.00665097	-0.0417133	0	0	0.590113	-0.140078	-0.23206	1.26608	0.136609	0	0	-0.372025	-0.0870893	0.187132	0.311064	-0.465407	-0.115684	1.57749	0	0	0	0.388578	-0.487685	0.0559699	1.53835	0.956398	0	0
0.66	-2.84869	1.38472	-1.81494	1.0202	0.162233	0.959171	-0.354627	0.0197468	-0.165876	0.00795757	-0.031862	0	0	0.581292	-0.133751	-0.250724	1.19845	0.137894	0	0	-0.367784	-0.0902563	0.188552	0.311104	-0.465952	-0.115996	1.57807	0	0	0	0.390964	-0.488932	0.0578612	1.53949	0.951671	0	0
0.67	-2.84084	1.38718	-1.82512	1.02101	0.171053	0.957779	-0.360731	0.0195284	-0.165581	0.0115976	-0.0213046	0	0	0.570726	-0.126406	-0.267624	1.12744	0.139477	0	0	-0.363739	-0.0927414	0.189673	0.311427	-0.466845	-0.11507	1.58075	0	0	0	0.393094	-0.490243	0.0579893	1.54107	0.949896	0	0
0.68	-2.83957	1.39039	-1.8283	1.02172	0.179917	0.956121	-0.365372	0.0205235	-0.165552	0.0172524	-0.00990115	0	0	0.558841	-0.120168	-0.285216	1.05424	0.140293	0	0	-0.359089	-0.0935436	0.190607	0.31223	-0.467483	-0.114501	1.58272	0	0	0	0.395262	-0.490992	0.059013	1.54262	0.944523	0	0
0.69	-2.84427	1.39444	-1.82512	1.02235	0.188872	0.954201	-0.368803	0.0228261	-0.166372	0.0241806	0.00259873	0	0	0.54602	-0.114744	-0.30497	0.978142	0.137107	0	0	-0.353554	-0.0927599	0.191304	0.313478	-0.468004	-0.114093	1.58397	0	0	0	0.396892	-0.491774	0.0585725	1.54365	0.942505	0	0
0.7	-2.85142	1.39788	-1.81906	1.02279	0.197961	0.9522	-0.373205	0.0253147	-0.167742	0.0316425	0.0145046	0	0	0.530077	-0.107483	-0.32463	0.897102	0.130715	0	0	-0.348462	-0.0913012	0.191581	0.314917	-0.468978	-0.11249	1.58516	0	0	0	0.398309	-0.492447	0.0560025	1.54396	0.948695	0	0
0.71	-2.86115	1.40143	-1.80925	1.02288	0.207199	0.950011	-0.378003	0.0282333	-0.171382	0.039202	0.0275974	0	0	0.51187	-0.0975059	-0.340719	0.811827	0.124817	0	0	-0.34307	-0.0887256	0.190849	0.316376	-0.470274	-0.11134	1.58577	0	0	0	0.399761	-0.492734	0.0545028	1.54373	0.962866	0	0
0.72	-2.87563	1.40593	-1.79372	1.02272	0.216657	0.947518	-0.384106	0.0327537	-0.173368	0.0428162	0.039614	0	0	0.493276	-0.0869273	-0.356283	0.724919	0.120433	0	0	-0.336215	-0.0848284	0.189611	0.317025	-0.470901	-0.111448	1.58532	0	0	0	0.401341	-0.493422	0.0561743	1.54419	0.963226	0	0
0.73	-2.89378	1.41177	-1.77364	1.02231	0.226293	0.944663	-0.389509	0.0383447	-0.175436	0.0456342	0.0521762	0	0	0.475059	-0.0752729	-0.369972	0.637486	0.120308	0	0	-0.327828	-0.0796955	0.188113	0.316595	-0.471841	-0.113037	1.58675	0	0	0	0.402772	-0.493667	0.0581781	1.54464	0.960386	0	0
0.74	-2.91098	1.41844	-1.75344	1.02168	0.23608	0.941537	-0.394156	0.0439257	-0.176929	0.04887	0.0629199	0	0	0.456401	-0.0612218	-0.380438	0.549059	0.122309	0	0	-0.31772	-0.0743121	0.185735	0.315898	-0.472825	-0.113653	1.58668	0	0	0	0.404248	-0.49342	0.0602851	1.54313	0.959138	0	0
0.75	-2.92095	1.42558	-1.73987	1.02083	0.24591	0.938277	-0.395077	0.0473986	-0.1843	0.0584143	0.0788791	0	0	0.43616	-0.0430417	-0.383902	0.458107	0.123666	0	0	-0.306708	-0.0700461	0.182342	0.31527	-0.473437	-0.113197	1.58571	0	0	0	0.405657	-0.492997	0.0624523	1.54103	0.957788	0	0
0.76	-2.90984	1.43	-1.74774	1.01974	0.255894	0.935289	-0.397395	0.0460281	-0.193133	0.0703563	0.096824	0	0	0.407398	-0.0172139	-0.374084	0.357615	0.118306	0	0	-0.297908	-0.0695991	0.178255	0.315027	-0.473195	-0.1137	1.58339	0	0	0	0.407474	-0.492938	0.065055	1.5385	0.957514	0	0
0.77	-2.84294	1.41943	-1.81828	1.01765	0.26729	0.934222	-0.417542	0.0275844	-0.198627	0.0781399	0.110647	0	0	0.35482	0.0203537	-0.372821	0.250797	0.107086	0	0	-0.300398	-0.0796419	0.177401	0.314201	-0.473993	-0.114444	1.57982	0	0	0	0.404957	-0.489765	0.0642043	1.53564	0.958674	0	0
0.78	-2.89616	1.44057	-1.75769	1.01758	0.276515	0.928812	-0.392652	0.0412157	-0.217531	0.112469	0.139204	0	0	0.350372	0.0275555	-0.327947	0.175291	0.0923814	0	0	-0.277117	-0.0674147	0.171832	0.315043	-0.470727	-0.116722	1.5755	0	0	0	0.407987	-0.492824	0.0672121	1.53513	0.956242	0	0
